<?xml version="1.0" standalone="no"?>
<!DOCTYPE svg PUBLIC "-//W3C//DTD SVG 20010904//EN"
 "http://www.w3.org/TR/2001/REC-SVG-20010904/DTD/svg10.dtd">
<svg version="1.0" xmlns="http://www.w3.org/2000/svg"
 width="1280" height="1280" viewBox="0 0 1280.000000 938.000000"
 preserveAspectRatio="xMidYMid meet">
<metadata>
Created by potrace 1.15, written by Peter Selinger 2001-2017
</metadata>
<g transform="translate(0.000000,938.000000) scale(0.100000,-0.100000)"
fill="#000000" stroke="none">
<path d="M9331 8599 c-72 -14 -182 -72 -243 -128 -190 -174 -325 -537 -386
-1036 l-18 -150 -18 110 c-69 431 -196 644 -356 596 -84 -25 -277 -147 -417
-265 -379 -316 -619 -747 -727 -1305 -44 -223 -59 -403 -59 -686 1 -349 27
-618 100 -1003 20 -107 24 -145 15 -154 -8 -8 -37 -1 -114 29 -149 59 -283
100 -385 118 l-89 17 0 51 c-1 230 -290 510 -901 876 -226 134 -436 247 -948
509 -253 129 -532 274 -620 322 -228 125 -317 150 -531 150 -202 0 -373 -43
-589 -149 -530 -260 -1091 -851 -1535 -1616 -72 -124 -221 -429 -268 -550 -97
-247 -149 -442 -158 -605 -8 -130 5 -202 51 -297 72 -147 264 -280 500 -348
180 -52 505 -93 760 -96 l70 0 -110 -29 c-305 -79 -493 -177 -544 -283 -40
-82 -25 -128 94 -285 359 -477 852 -747 1517 -828 181 -23 561 -23 766 0 410
45 793 132 1242 282 298 100 371 140 385 211 3 12 7 34 10 47 l5 24 87 -37
c49 -21 95 -40 105 -44 13 -5 15 -12 7 -44 -4 -21 -6 -46 -3 -55 3 -10 38 -37
77 -60 161 -94 751 -362 1152 -524 127 -50 318 -135 425 -187 348 -169 595
-267 855 -338 83 -23 140 -32 232 -36 110 -5 125 -4 165 16 24 11 57 21 72 21
26 0 86 49 86 69 0 4 29 31 65 60 92 75 204 187 251 251 149 202 259 477 374
935 49 192 56 232 45 245 -11 13 -2 38 59 160 65 134 119 273 145 375 l10 40
78 1 c143 1 269 73 467 264 292 283 565 659 1146 1578 140 222 286 446 323
498 114 158 165 307 174 509 6 136 -6 251 -42 390 -144 553 -672 1217 -1395
1755 -597 443 -1163 687 -1459 629z"/>
</g>
</svg>
