<?xml version="1.0" standalone="no"?>
<!DOCTYPE svg PUBLIC "-//W3C//DTD SVG 20010904//EN"
 "http://www.w3.org/TR/2001/REC-SVG-20010904/DTD/svg10.dtd">
<svg version="1.0" xmlns="http://www.w3.org/2000/svg"
 width="1280" height="1280" viewBox="0 0 1280.000000 904.000000"
 preserveAspectRatio="xMidYMid meet">
<metadata>
Created by potrace 1.15, written by Peter Selinger 2001-2017
</metadata>
<g transform="translate(0.000000,904.000000) scale(0.100000,-0.100000)"
fill="#000000" stroke="none">
<path d="M7285 8524 c-1094 -89 -2005 -163 -2024 -163 l-33 -1 6 -72 c3 -40
71 -881 151 -1868 79 -987 147 -1823 151 -1857 3 -35 2 -63 -3 -63 -16 0 -829
200 -874 216 -45 14 -47 17 -63 74 -17 61 -10 223 64 1510 6 96 19 337 30 535
35 638 50 915 65 1154 8 146 10 243 4 258 -5 13 -9 59 -9 102 l0 78 -87 7
c-340 25 -4088 225 -4094 219 -5 -6 -250 -4330 -249 -4405 0 -13 13 -18 55
-23 30 -4 55 -11 55 -15 0 -29 77 -37 780 -75 162 -9 412 -22 555 -30 143 -8
310 -17 370 -21 254 -14 324 -22 362 -42 35 -18 38 -23 36 -58 -1 -22 -173
-733 -382 -1582 -210 -849 -381 -1545 -381 -1546 0 -2 27 -11 60 -21 33 -10
60 -21 60 -24 0 -4 13 -14 29 -24 26 -15 169 -52 1046 -267 132 -32 416 -102
630 -155 389 -96 651 -160 1198 -294 l288 -71 417 0 417 0 78 313 c96 389 350
1418 422 1712 30 121 108 441 175 710 67 270 152 617 190 773 39 155 81 303
94 330 31 60 88 115 147 141 51 23 188 41 312 41 102 0 172 -27 181 -71 3 -16
109 -822 236 -1791 127 -970 233 -1773 236 -1786 4 -20 10 -23 42 -21 20 1 55
-6 77 -16 38 -17 46 -16 285 15 135 18 292 38 350 46 58 7 193 25 300 39 171
22 687 90 1295 169 105 14 278 37 385 51 107 14 418 54 690 90 272 35 528 69
568 75 78 11 129 32 139 56 3 7 11 14 19 14 22 0 65 -342 -401 3210 -124 941
-157 1176 -170 1188 -3 3 -393 -45 -867 -107 -475 -62 -881 -114 -903 -117
-39 -5 -40 -5 -57 38 -10 24 -18 51 -18 61 0 9 -4 17 -8 17 -5 0 -6 27 -4 60
2 33 0 60 -5 60 -5 0 -7 27 -5 61 2 35 0 59 -5 56 -5 -3 -7 22 -5 59 2 35 0
64 -5 64 -5 0 -7 29 -5 65 2 36 0 65 -4 65 -9 0 -13 62 -13 183 0 37 -3 57
-10 53 -6 -4 -8 16 -4 59 3 37 2 65 -4 65 -5 0 -7 29 -5 65 3 36 0 65 -5 65
-5 0 -10 26 -10 58 -1 158 -3 193 -11 188 -4 -2 -6 24 -4 60 3 46 1 64 -8 64
-8 0 -10 7 -5 18 8 22 -16 352 -27 352 -4 0 -5 7 -1 16 7 18 -59 844 -67 839
-3 -2 -3 26 -2 61 3 44 0 64 -8 64 -7 0 -9 8 -5 21 9 28 -16 350 -27 343 -5
-3 -6 22 -2 60 5 44 3 66 -4 66 -7 0 -9 19 -5 55 4 34 2 55 -4 55 -6 0 -13 30
-17 68 -4 37 -9 84 -13 105 l-6 37 -66 -1 c-36 -1 -961 -75 -2056 -165z"/>
</g>
</svg>
