<?xml version="1.0" standalone="no"?>
<!DOCTYPE svg PUBLIC "-//W3C//DTD SVG 20010904//EN"
 "http://www.w3.org/TR/2001/REC-SVG-20010904/DTD/svg10.dtd">
<svg version="1.0" xmlns="http://www.w3.org/2000/svg"
 width="1280" height="1280" viewBox="0 0 1280.000000 790.000000"
 preserveAspectRatio="xMidYMid meet">
<metadata>
Created by potrace 1.15, written by Peter Selinger 2001-2017
</metadata>
<g transform="translate(0.000000,790.000000) scale(0.100000,-0.100000)"
fill="#000000" stroke="none">
<path d="M6780 7872 c0 -29 3 -32 30 -32 23 0 30 -4 30 -20 0 -11 7 -20 15
-20 22 0 18 -27 -5 -33 -17 -4 -20 -14 -20 -56 l0 -51 -1505 0 c-1306 1 -1508
-1 -1532 -14 -16 -8 -55 -46 -88 -85 -54 -64 -64 -71 -97 -71 -32 0 -41 -6
-68 -44 -35 -52 -37 -60 -10 -53 28 7 26 1 -26 -59 -32 -38 -53 -54 -70 -54
-13 0 -24 -4 -24 -8 0 -5 -55 -16 -121 -26 -67 -9 -257 -41 -423 -72 -165 -30
-337 -62 -381 -70 -110 -19 -176 -18 -243 7 -170 62 -206 71 -297 71 -88 0
-437 -37 -1015 -108 -537 -65 -789 -105 -827 -129 -16 -11 -23 -12 -26 -2 -3
8 -11 6 -27 -8 -27 -25 -26 -54 19 -355 27 -182 98 -725 116 -899 9 -80 37
-115 82 -102 56 17 412 138 1133 386 1642 564 2062 704 2124 706 l58 3 5 -40
c2 -21 3 -64 3 -95 -1 -42 6 -70 29 -120 17 -35 31 -76 31 -91 0 -78 -53 -248
-190 -613 -101 -269 -103 -335 -15 -413 68 -59 134 -77 290 -77 191 0 221 21
235 167 8 93 11 101 192 526 82 193 134 302 164 342 44 60 81 89 93 73 4 -4
19 -25 34 -45 15 -21 49 -50 74 -65 l46 -27 241 3 c230 2 243 3 293 26 37 17
62 37 85 69 30 44 34 46 79 46 26 0 51 -5 55 -12 8 -13 7 -75 -1 -129 -5 -27
-2 -38 8 -42 11 -4 20 16 38 85 19 73 28 92 46 99 21 8 23 14 25 136 3 124 4
128 26 131 20 3 22 -1 22 -37 l0 -41 50 0 c44 0 50 -3 50 -21 0 -11 14 -84 31
-161 178 -812 660 -1502 1386 -1984 115 -76 127 -82 138 -66 41 58 435 684
435 690 -1 4 -33 30 -72 57 -186 130 -438 363 -573 530 -163 201 -315 466
-400 699 -42 114 -110 373 -120 459 -7 51 -5 57 11 57 11 0 165 7 344 15 318
13 325 13 343 -6 14 -15 31 -19 77 -19 53 0 59 -2 62 -22 3 -21 9 -23 65 -26
63 -3 112 7 339 67 110 30 111 30 630 46 867 27 994 32 1007 43 6 5 38 13 70
16 55 7 57 9 57 37 l0 29 535 0 c407 0 534 -3 532 -12 -2 -14 86 -11 91 3 5
13 1532 12 1532 -2 0 -6 21 -9 53 -7 52 3 52 3 51 36 -1 17 2 32 7 32 5 0 9
-4 9 -10 0 -5 11 -10 25 -10 22 0 25 4 25 35 l0 35 50 0 c38 0 50 4 50 15 0 8
7 15 15 15 8 0 15 -7 15 -15 0 -13 28 -15 195 -15 l195 0 0 30 c0 27 -4 31
-46 41 -63 16 -156 80 -180 124 l-19 35 -72 0 c-42 0 -73 -4 -73 -10 0 -5 -7
-10 -15 -10 -9 0 -15 9 -15 21 0 17 -5 20 -25 17 -19 -4 -25 -1 -25 13 0 11
-9 19 -22 21 l-23 3 -5 265 -5 265 -104 3 c-67 2 -108 -1 -117 -9 -9 -8 -14
-33 -14 -79 0 -66 -3 -76 -100 -275 -55 -114 -100 -216 -100 -226 0 -18 -17
-19 -435 -19 -350 0 -435 3 -435 13 0 8 -24 17 -66 24 -150 26 -258 118 -366
312 l-17 31 -459 0 c-400 0 -461 2 -466 15 -4 12 -25 15 -103 15 -87 0 -100 2
-111 20 -8 13 -23 20 -41 20 -16 0 -31 5 -33 12 -3 9 -183 18 -694 34 -379 12
-693 19 -699 15 -5 -3 -28 -8 -50 -11 -29 -4 -43 -11 -50 -27 -8 -18 -18 -23
-47 -23 l-38 0 0 48 c0 26 -5 53 -12 60 -8 8 -48 12 -115 12 -80 0 -105 3
-109 14 -9 23 -35 28 -62 10 -21 -14 -61 -16 -316 -13 -274 3 -292 4 -313 23
l-23 19 0 -31z m485 -49 c-83 -31 -143 -44 -242 -50 -89 -5 -103 -4 -103 9 0
9 7 18 15 22 8 3 15 12 15 21 0 13 24 15 178 14 170 0 175 -1 137 -16z m2485
-213 c0 -24 -26 -38 -42 -22 -16 16 -2 42 22 42 13 0 20 -7 20 -20z m118 -3
c4 -20 -25 -34 -40 -19 -15 15 -1 44 19 40 10 -2 19 -11 21 -21z m116 14 c9
-13 -4 -41 -18 -41 -18 0 -35 21 -29 36 6 16 39 19 47 5z m2246 -90 c16 -32
12 -122 -7 -143 -14 -15 -32 -18 -124 -18 -128 0 -145 9 -135 73 14 84 49 106
168 107 76 0 89 -2 98 -19z m-3812 -63 c7 -7 12 -20 12 -30 0 -16 12 -18 135
-18 123 0 135 2 135 18 0 39 17 42 215 42 104 0 195 -4 201 -8 6 -4 14 -17 18
-29 7 -21 14 -23 67 -23 52 0 59 -2 59 -20 0 -18 -7 -20 -58 -20 -53 0 -60 -2
-70 -25 l-12 -25 -202 2 c-200 3 -203 3 -213 26 -9 21 -14 22 -142 22 -129 0
-132 0 -135 -22 l-3 -23 -210 0 -210 0 -3 23 c-2 14 -10 22 -23 22 -12 0 -19
7 -19 20 0 13 7 20 20 20 13 0 20 7 20 18 0 39 17 42 215 42 135 0 195 -4 203
-12z m2022 -118 l0 -70 -450 0 -450 0 0 40 0 40 -75 0 c-73 0 -75 1 -75 25 0
24 1 24 103 28 56 1 292 4 525 5 l422 2 0 -70z m0 -280 c0 -23 4 -30 20 -30
11 0 20 -4 20 -10 0 -7 -183 -10 -530 -10 -523 0 -530 0 -530 20 0 18 7 20 60
20 53 0 60 2 60 20 0 20 7 20 450 20 l450 0 0 -30z m1400 15 c0 -12 18 -15
106 -15 104 0 105 0 102 -22 l-3 -23 -732 -3 c-487 -1 -733 1 -733 8 0 5 14
10 30 10 17 0 30 5 30 10 0 6 62 10 165 10 158 0 165 1 165 20 0 20 7 20 435
20 380 0 435 -2 435 -15z m-6660 -537 c0 -218 -5 -234 -76 -279 -38 -23 -46
-24 -283 -27 l-243 -3 -38 25 c-21 14 -52 45 -68 68 -27 39 -28 46 -16 63 19
26 18 74 -2 97 -16 16 -16 18 0 24 13 5 16 20 16 75 0 38 2 69 4 69 3 0 32
-16 65 -35 56 -33 60 -38 81 -101 14 -41 37 -82 59 -107 37 -42 139 -97 179
-97 37 0 25 18 -20 32 -54 16 -143 101 -153 146 -9 43 1 97 29 152 22 43 24
45 72 48 27 2 54 9 60 17 8 10 40 15 115 18 57 1 130 4 162 5 l57 2 0 -192z"/>
<path d="M6004 3602 c-17 -16 -49 -18 -311 -21 -255 -2 -295 -1 -315 13 -28
20 -33 20 -52 0 -12 -11 -41 -16 -121 -17 -121 -2 -125 -5 -125 -79 l0 -48
-38 0 c-29 0 -39 5 -47 23 -19 43 -71 45 -635 27 -168 -5 -422 -12 -565 -16
-190 -5 -268 -10 -289 -20 -16 -8 -37 -14 -47 -14 -11 0 -24 -9 -31 -20 -11
-18 -24 -20 -111 -20 -78 0 -99 -3 -103 -15 -5 -13 -67 -15 -469 -15 -451 0
-464 -1 -470 -20 -14 -44 -106 -169 -163 -222 -66 -60 -133 -92 -221 -104 -33
-4 -51 -11 -51 -20 0 -12 -73 -14 -435 -14 -416 0 -435 1 -435 18 0 11 -45
112 -100 225 -97 200 -100 208 -100 275 0 39 -5 73 -12 80 -8 8 -48 12 -115
12 -103 0 -104 0 -114 -26 -5 -16 -9 -128 -9 -268 1 -237 1 -241 -19 -244 -12
-2 -21 -10 -21 -18 0 -8 -10 -14 -25 -14 -18 0 -25 -5 -25 -20 0 -13 -7 -20
-20 -20 -11 0 -20 7 -20 15 0 12 -14 15 -70 15 -66 0 -70 -1 -84 -29 -29 -54
-109 -112 -191 -136 -32 -10 -41 -17 -43 -39 l-3 -26 195 0 c124 0 196 4 196
10 0 6 9 10 20 10 11 0 20 -7 20 -15 0 -11 12 -15 50 -15 l50 0 0 -35 c0 -30
3 -35 24 -35 13 0 27 6 29 13 3 6 6 -5 6 -25 l1 -38 55 0 c30 0 55 5 55 10 0
7 262 10 765 10 446 0 765 -4 765 -9 0 -5 20 -11 45 -13 31 -2 45 1 45 9 0 10
112 13 535 13 l535 0 0 -29 c0 -28 2 -30 58 -37 31 -3 62 -11 69 -16 13 -10
202 -19 1003 -43 283 -9 535 -21 560 -26 25 -6 101 -26 170 -46 95 -27 145
-36 210 -37 79 -1 86 1 95 22 8 19 17 22 62 22 61 0 83 7 83 27 0 12 17 14
108 9 59 -4 215 -11 346 -16 132 -6 242 -12 244 -15 9 -8 -37 -231 -73 -352
-120 -414 -337 -769 -662 -1084 -119 -115 -265 -238 -376 -315 -31 -21 -57
-43 -57 -47 0 -7 423 -681 439 -699 7 -8 175 99 286 181 533 394 934 936 1139
1541 49 147 98 333 117 448 l12 72 48 0 49 0 0 41 c0 36 2 40 23 37 21 -3 22
-7 25 -132 2 -118 4 -128 22 -133 15 -4 25 -24 41 -77 34 -117 33 -116 47
-107 10 6 10 23 3 76 -13 91 -5 105 59 105 45 0 50 -3 70 -35 26 -43 73 -79
120 -93 20 -7 135 -12 271 -13 l236 -2 46 26 c25 15 60 47 78 72 18 25 37 45
42 45 15 0 85 -79 112 -125 28 -48 277 -633 305 -716 11 -32 20 -82 20 -111 0
-67 24 -116 70 -143 30 -17 52 -20 160 -20 194 0 291 39 341 138 33 63 23 124
-55 332 -111 294 -177 495 -188 575 -11 75 -11 77 22 148 27 60 32 80 28 119
-3 27 -3 68 1 92 l6 45 60 -3 c61 -2 744 -230 2280 -759 538 -186 922 -316
978 -333 24 -6 33 -4 53 16 13 13 24 32 24 42 0 54 93 776 135 1050 14 89 25
177 25 196 0 36 -30 74 -49 63 -6 -4 -20 -2 -31 4 -53 29 -709 117 -1560 210
-319 35 -351 32 -575 -50 -82 -30 -151 -25 -510 43 -159 31 -371 68 -470 83
-99 16 -181 32 -183 36 -2 4 -14 8 -27 8 -16 0 -38 17 -69 52 -50 58 -56 73
-26 65 27 -7 25 1 -11 48 -25 33 -35 39 -62 37 -29 -3 -39 5 -96 70 -35 40
-75 80 -90 88 -23 13 -218 16 -1535 20 l-1509 5 0 48 c1 43 -2 49 -26 59 l-26
10 23 15 c12 9 22 22 22 29 0 9 11 14 30 14 27 0 30 3 30 30 0 35 0 35 -26 12z
m-144 -57 c0 -9 7 -18 15 -21 8 -4 15 -13 15 -22 0 -13 -14 -14 -102 -9 -101
7 -162 19 -243 50 -38 15 -33 16 138 16 153 1 177 -1 177 -14z m-2990 -215 c0
-24 -26 -38 -42 -22 -16 16 -2 42 22 42 13 0 20 -7 20 -20z m118 -3 c4 -20
-25 -34 -40 -19 -15 15 -1 44 19 40 10 -2 19 -11 21 -21z m116 14 c9 -13 -4
-41 -18 -41 -18 0 -35 21 -29 36 6 16 39 19 47 5z m-2309 -93 c48 -38 69 -112
39 -142 -23 -23 -225 -23 -248 0 -19 19 -22 134 -4 152 7 7 45 12 99 12 73 0
90 -3 114 -22z m3308 -78 l11 -30 133 0 c121 0 133 2 133 18 0 39 17 42 215
42 198 0 215 -3 215 -42 0 -11 7 -18 20 -18 13 0 20 -7 20 -20 0 -13 -7 -20
-19 -20 -13 0 -21 -8 -23 -22 l-3 -23 -210 0 -210 0 -3 23 c-3 22 -6 22 -135
22 -128 0 -133 -1 -142 -22 -10 -23 -12 -23 -215 -23 -203 0 -205 0 -215 23
-8 19 -17 22 -67 22 -51 0 -58 2 -58 20 0 18 7 20 58 20 55 0 58 1 69 30 l11
30 202 0 202 0 11 -30z m-840 -37 c156 -6 157 -6 157 -30 0 -22 -3 -23 -75
-23 l-75 0 0 -40 0 -40 -450 0 -450 0 0 70 0 70 368 0 c202 0 438 -3 525 -7z
m-1423 -333 c0 -19 7 -20 165 -20 103 0 165 -4 165 -10 0 -5 14 -10 30 -10 17
0 30 -5 30 -10 0 -7 -246 -9 -732 -8 l-733 3 -3 23 c-3 22 -2 22 102 22 88 0
106 3 106 15 0 13 55 15 435 15 428 0 435 0 435 -20z m1430 0 c0 -18 7 -20 60
-20 53 0 60 -2 60 -20 0 -20 -7 -20 -530 -20 -347 0 -530 3 -530 10 0 6 9 10
20 10 16 0 20 7 20 30 l0 30 450 0 c443 0 450 0 450 -20z m4686 -366 c7 -9 30
-14 61 -14 49 0 50 0 76 -49 39 -70 44 -127 18 -178 -26 -52 -89 -106 -141
-122 -44 -13 -54 -31 -17 -31 39 0 144 59 180 101 19 21 40 58 46 81 26 85 50
109 154 156 4 2 7 -28 7 -66 0 -55 3 -71 16 -76 16 -6 16 -8 0 -24 -20 -23
-21 -72 -2 -97 13 -18 10 -24 -26 -70 -69 -87 -62 -85 -318 -85 -133 0 -241 5
-265 11 -24 7 -55 27 -77 51 l-38 39 0 200 0 200 158 -6 c115 -5 160 -11 168
-21z"/>
</g>
</svg>
