<?xml version="1.0" standalone="no"?>
<!DOCTYPE svg PUBLIC "-//W3C//DTD SVG 20010904//EN"
 "http://www.w3.org/TR/2001/REC-SVG-20010904/DTD/svg10.dtd">
<svg version="1.0" xmlns="http://www.w3.org/2000/svg"
 width="1280" height="1280" viewBox="0 0 1280.000000 1128.000000"
 preserveAspectRatio="xMidYMid meet">
<metadata>
Created by potrace 1.15, written by Peter Selinger 2001-2017
</metadata>
<g transform="translate(0.000000,1128.000000) scale(0.100000,-0.100000)"
fill="#000000" stroke="none">
<path d="M3537 11251 c-38 -45 -89 -268 -112 -486 -10 -103 -14 -115 -38 -115
-12 0 -28 4 -35 8 -6 5 -33 111 -58 238 -25 126 -52 239 -60 252 -18 27 -54
29 -84 4 l-22 -18 17 -120 c10 -65 19 -177 19 -249 l1 -130 -58 -134 c-100
-230 -109 -265 -116 -437 l-6 -152 -77 -88 c-119 -137 -369 -540 -536 -866
-138 -268 -165 -335 -246 -598 -26 -83 -48 -134 -82 -184 -104 -154 -117 -216
-64 -299 40 -63 117 -111 277 -174 152 -60 291 -94 543 -130 102 -14 188 -31
191 -36 4 -5 90 -24 191 -43 102 -18 231 -45 289 -59 364 -93 509 -108 698
-76 217 38 314 28 378 -41 52 -55 79 -199 70 -362 -6 -109 -124 -787 -138
-796 -9 -6 -23 -118 -34 -276 -6 -79 -4 -101 18 -175 48 -162 52 -188 52 -369
0 -240 -19 -337 -102 -548 -44 -109 -48 -115 -116 -175 -135 -118 -162 -149
-179 -207 -67 -230 -157 -481 -232 -647 -68 -151 -176 -426 -176 -449 0 -2 27
-17 59 -34 l59 -29 -14 -63 c-8 -35 -23 -93 -35 -130 -37 -116 -146 -227 -225
-228 -34 0 -106 42 -174 103 -25 22 -76 55 -115 73 -94 45 -193 58 -404 51
-91 -3 -261 -6 -378 -6 -134 0 -214 -4 -218 -11 -16 -26 -35 -6 -54 58 -15 49
-34 82 -70 124 -30 35 -60 85 -77 128 -47 119 -126 189 -216 190 -20 0 -40 5
-44 11 -4 7 -28 10 -64 7 -51 -4 -79 -17 -271 -125 l-214 -122 2 -44 3 -44
-123 -95 c-143 -111 -137 -107 -263 -153 -53 -19 -154 -60 -223 -89 -69 -30
-142 -60 -161 -67 -19 -7 -64 -41 -100 -75 -36 -34 -88 -82 -117 -108 -95 -87
-189 -244 -245 -411 -19 -58 -23 -90 -22 -185 1 -132 17 -195 66 -254 39 -48
81 -66 151 -66 120 0 143 10 325 143 93 68 214 149 268 180 96 55 103 57 269
86 243 43 465 54 650 31 267 -33 232 -37 305 28 63 57 64 57 136 60 l73 4 118
-74 c220 -139 338 -204 443 -243 58 -21 139 -54 180 -72 75 -34 230 -121 230
-129 0 -3 -9 0 -21 6 -11 6 -24 10 -29 8 -22 -7 -200 -275 -206 -308 -23 -140
-80 -242 -156 -278 -39 -19 -125 -38 -204 -44 -25 -3 -56 -31 -183 -168 -164
-177 -225 -258 -289 -387 -88 -175 -112 -273 -88 -357 29 -97 136 -188 240
-202 61 -9 127 24 227 113 131 117 319 243 420 283 40 16 74 20 182 20 110 0
139 4 176 20 36 17 65 20 170 20 l127 0 93 105 c50 58 95 105 100 105 4 0 169
34 366 75 l359 75 435 0 c312 0 484 -5 606 -16 288 -26 545 -5 644 52 125 74
284 301 421 605 44 95 71 143 95 164 47 41 65 90 65 178 0 157 16 201 172 458
102 168 157 289 243 532 176 503 267 907 320 1420 29 286 29 470 -3 802 -15
165 -25 302 -20 305 4 3 13 116 20 250 11 200 11 269 0 375 -7 73 -11 210 -9
310 l3 180 46 140 c40 121 48 159 58 280 15 169 7 353 -26 675 -14 129 -27
307 -30 395 -6 155 -5 165 27 310 32 146 32 157 35 414 l2 264 27 14 c14 8 77
36 138 62 l112 48 245 12 c236 11 247 11 296 -8 l52 -20 56 73 c91 119 162
156 300 156 67 0 98 6 181 36 175 62 188 65 320 75 205 15 622 67 830 104 227
40 313 66 503 151 201 90 280 115 387 121 115 6 162 -10 317 -113 106 -71 130
-82 403 -181 237 -86 303 -106 362 -110 85 -6 117 8 128 56 14 65 -20 94 -136
113 -59 10 -88 21 -141 56 -65 43 -78 61 -78 112 0 37 35 88 72 104 18 8 175
33 348 56 332 44 373 55 406 106 10 14 18 40 19 59 1 18 12 46 24 61 23 29 27
49 12 59 -5 3 -7 21 -4 41 5 30 2 39 -27 64 -41 37 -85 46 -300 61 -169 11
-192 10 -640 -25 -603 -47 -631 -50 -785 -84 l-130 -28 -130 17 c-72 10 -293
24 -490 32 -335 12 -374 12 -565 -5 -197 -18 -219 -22 -555 -107 -192 -49
-386 -95 -430 -101 -44 -7 -92 -18 -107 -26 -30 -16 -41 -18 -35 -6 3 4 -293
7 -656 7 -743 0 -665 7 -879 -81 -127 -52 -182 -66 -400 -99 -90 -14 -228 -39
-307 -56 l-144 -31 -18 23 c-10 13 -39 70 -64 126 -57 127 -68 208 -38 268 29
59 46 158 38 229 -16 138 -73 404 -120 563 -23 73 -30 86 -81 132 -148 136
-356 213 -579 215 -159 1 -206 -20 -348 -153 -174 -164 -268 -352 -266 -531 0
-36 13 -142 27 -237 l27 -172 162 -199 161 -199 23 -163 23 -163 -85 -78
c-126 -116 -270 -195 -484 -264 -101 -32 -196 -70 -233 -92 -35 -21 -116 -89
-180 -151 -161 -157 -222 -187 -496 -242 -166 -33 -520 -134 -636 -180 -25
-10 -25 -10 -5 7 19 17 20 31 20 238 l0 220 49 115 c28 63 120 257 207 430
164 329 160 324 282 430 27 24 33 24 260 31 342 10 397 26 397 119 0 80 -84
112 -288 109 -142 -1 -152 3 -152 68 0 58 14 83 130 238 187 250 268 413 246
500 -8 33 -56 35 -86 3 -26 -27 -113 -167 -160 -257 -41 -77 -67 -97 -104 -80
-14 7 -26 16 -26 21 0 5 30 59 66 121 110 185 148 311 120 394 -10 32 -71 42
-96 17 -11 -11 -57 -101 -103 -202 -115 -246 -171 -331 -210 -316 -24 9 -22
77 8 225 32 157 48 301 40 356 -11 76 -55 95 -98 44z m2090 -7808 c4 -9 -1
-54 -10 -99 -24 -115 -148 -497 -187 -573 -20 -41 -32 -79 -32 -103 1 -76 43
-169 123 -273 l51 -67 -57 -167 c-31 -91 -69 -200 -83 -242 l-25 -76 -141 -7
c-289 -14 -417 -42 -668 -144 -53 -22 -98 -36 -100 -32 -5 13 -411 -126 -498
-169 -44 -23 -82 -41 -84 -41 -4 0 -26 59 -26 70 0 4 55 22 123 40 67 18 146
44 176 57 87 38 213 127 278 197 90 96 206 298 322 563 l102 231 42 -19 c77
-35 150 -19 220 49 21 20 72 82 112 138 72 99 107 171 182 379 56 155 137 305
164 305 5 0 13 -8 16 -17z"/>
</g>
</svg>
