<?xml version="1.0" standalone="no"?>
<!DOCTYPE svg PUBLIC "-//W3C//DTD SVG 20010904//EN"
 "http://www.w3.org/TR/2001/REC-SVG-20010904/DTD/svg10.dtd">
<svg version="1.0" xmlns="http://www.w3.org/2000/svg"
 width="1280" height="1280" viewBox="0 0 1280.000000 640.000000"
 preserveAspectRatio="xMidYMid meet">
<metadata>
Created by potrace 1.15, written by Peter Selinger 2001-2017
</metadata>
<g transform="translate(0.000000,640.000000) scale(0.100000,-0.100000)"
fill="#000000" stroke="none">
<path d="M5140 6379 c-184 -14 -359 -37 -445 -59 -138 -36 -412 -130 -425
-145 -7 -8 -31 -20 -54 -26 -71 -19 -317 -158 -418 -237 l-58 -45 -1842 167
c-1014 92 -1849 169 -1855 171 -10 4 -13 -103 -13 -509 l0 -513 143 -12 c78
-7 149 -14 157 -17 13 -3 15 -57 12 -424 l-2 -420 -170 0 c-163 0 -170 -1
-170 -20 0 -19 7 -20 171 -20 l172 0 -7 -487 c-4 -269 -9 -489 -10 -491 -2 -1
-76 -5 -165 -9 -152 -6 -161 -7 -161 -26 0 -19 5 -20 165 -15 l165 6 -2 -467
-3 -466 -162 -3 c-155 -2 -163 -4 -163 -22 0 -19 7 -20 166 -20 l167 0 -6 -67
c-4 -38 -7 -229 -7 -425 l0 -358 -161 0 c-157 0 -160 0 -157 -21 3 -20 8 -21
161 -20 l157 2 0 -191 c0 -183 1 -190 20 -190 19 0 20 7 20 189 l0 189 152 6
c84 3 304 8 488 12 l335 6 -3 -216 c-3 -212 -3 -216 17 -216 20 0 21 5 21 184
0 217 4 246 34 246 11 0 134 -29 271 -65 138 -36 356 -92 485 -126 129 -33
243 -63 253 -66 17 -5 18 -14 12 -134 -7 -124 -7 -129 12 -129 18 0 21 9 26
83 4 45 7 100 7 122 l0 41 468 33 c257 18 498 35 536 39 l69 5 -8 -216 c-7
-211 -7 -217 12 -217 19 0 20 10 26 143 4 78 7 177 7 220 0 61 3 77 15 77 8 0
110 -29 227 -64 117 -35 308 -91 423 -126 l210 -62 -3 -134 c-4 -131 -3 -134
17 -134 20 0 21 5 21 94 0 128 7 159 34 152 12 -2 247 14 524 37 l502 42 0
-211 c0 -196 1 -212 18 -210 15 3 17 22 20 214 2 157 6 212 14 212 7 0 91 -22
188 -50 96 -27 306 -85 465 -130 160 -44 298 -83 309 -86 17 -6 18 -16 15
-142 -4 -120 -2 -137 12 -140 21 -4 29 42 29 169 l0 95 43 2 c23 2 161 12 307
22 146 11 328 25 405 30 77 6 155 12 173 15 l34 4 -4 -199 -3 -200 22 0 c13 0
22 3 22 8 -1 4 -1 94 0 200 l1 192 28 0 c15 0 213 -52 441 -117 l413 -118 -3
-125 c-4 -109 -2 -125 12 -128 21 -4 29 35 29 150 0 88 0 90 22 85 12 -4 200
0 418 8 217 8 407 15 423 15 l27 0 0 -155 c0 -148 1 -155 20 -155 19 0 20 7
20 155 l0 155 36 0 c28 0 696 -148 797 -176 15 -5 17 -19 17 -110 0 -97 1
-104 20 -104 18 0 20 8 22 98 3 92 4 97 24 94 12 -2 191 18 398 43 207 25 378
45 379 45 1 0 0 -81 -1 -180 -4 -174 -3 -180 16 -180 19 0 20 9 24 180 2 98 7
182 10 185 3 3 173 -45 377 -107 l371 -113 0 -123 c0 -112 2 -123 18 -120 15
3 17 18 20 117 2 92 5 112 17 108 27 -11 85 -18 403 -47 388 -36 372 -36 372
-10 0 13 -7 20 -20 20 -52 0 -672 61 -718 70 l-52 11 5 222 c12 510 17 627 27
621 8 -5 692 -73 741 -74 10 0 17 8 17 20 0 11 -6 20 -12 20 -49 1 -727 70
-740 75 -13 5 -18 18 -18 44 1 136 21 875 24 878 3 3 573 -47 699 -62 42 -5
47 -4 47 14 0 25 14 23 -400 61 -184 17 -339 35 -343 39 -6 6 10 972 16 977 1
1 155 -14 342 -32 411 -40 385 -39 385 -14 0 11 -6 20 -12 20 -39 1 -709 68
-713 72 -5 5 13 859 18 865 2 2 163 -12 358 -31 195 -19 355 -33 356 -32 2 1
-8 187 -22 412 -37 603 -41 663 -47 669 -3 3 -1321 125 -2929 271 l-2924 266
-109 110 c-124 125 -249 228 -384 316 -106 70 -424 232 -557 285 -139 55 -463
106 -510 79 -14 -7 -22 -6 -33 4 -7 8 -16 13 -20 13 -4 -1 -59 -6 -122 -10z
m-4242 -1278 c277 -27 506 -51 508 -54 3 -2 1 -164 -3 -358 l-8 -354 -365 -7
c-201 -4 -429 -8 -508 -10 l-142 -3 0 350 c0 281 6 486 14 485 1 0 227 -22
504 -49z m1107 -107 c264 -24 485 -46 490 -48 7 -2 7 -151 2 -442 -5 -242 -10
-440 -12 -442 -2 -2 -205 50 -835 213 -96 25 -183 48 -192 51 -16 5 -18 21
-18 147 0 78 3 240 7 359 l6 218 36 -5 c20 -3 252 -26 516 -51z m823 -78 c128
-13 235 -25 238 -29 3 -3 -8 -48 -25 -101 -57 -179 -101 -452 -101 -638 0 -55
-1 -58 -24 -58 -22 0 -190 -12 -335 -24 l-53 -5 6 387 c4 213 9 411 12 440 6
62 -26 59 282 28z m4724 -452 c47 -4 90 -9 96 -13 9 -6 0 -697 -9 -705 -4 -3
-262 -24 -266 -21 -1 1 2 26 7 56 26 146 22 525 -7 671 l-6 31 49 -6 c27 -4
88 -9 136 -13z m618 -59 c212 -20 390 -38 397 -40 8 -3 10 -43 7 -142 -2 -76
-7 -271 -10 -434 l-6 -296 -430 123 c-237 68 -434 126 -437 130 -7 7 -3 417 6
587 l6 119 41 -6 c22 -3 214 -22 426 -41z m945 -91 c215 -20 391 -38 393 -39
6 -5 -16 -746 -22 -753 -7 -7 -119 -12 -639 -27 l-248 -8 6 334 c3 184 8 381
11 438 l6 104 52 -6 c28 -3 227 -23 441 -43z m-7729 -476 c-4 -249 -9 -469
-12 -489 l-5 -37 -117 -6 c-64 -3 -289 -9 -500 -12 l-383 -6 7 488 c4 269 9
491 11 494 5 6 393 15 762 18 l244 2 -7 -452z m824 251 c151 -39 275 -72 276
-72 2 -6 -19 -973 -22 -976 -3 -4 -1045 265 -1047 271 -4 6 15 953 18 965 3 7
83 -9 252 -53 136 -35 372 -96 523 -135z m7778 142 c222 -22 406 -41 408 -44
7 -7 -10 -854 -17 -861 -2 -3 -108 19 -234 48 -127 30 -315 74 -420 98 l-190
44 3 160 c7 471 14 594 31 594 9 0 197 -18 419 -39z m842 -81 c173 -17 336
-33 362 -36 l48 -6 -6 -346 c-4 -191 -8 -348 -9 -349 -2 -4 -755 -93 -780 -93
-19 0 -20 5 -18 87 2 49 5 244 9 435 l6 348 37 -5 c20 -3 178 -19 351 -35z
m870 -83 l335 -32 -4 -302 c-2 -166 -7 -359 -10 -430 l-6 -129 -285 86 c-157
48 -324 99 -372 114 l-88 27 0 152 c0 84 3 242 7 353 l6 201 41 -4 c23 -3 192
-19 376 -36z m-8756 -39 c3 -13 6 -43 6 -68 1 -187 90 -551 191 -784 21 -49
38 -90 36 -92 -4 -4 -662 -51 -666 -47 -7 5 15 972 22 979 6 6 263 29 363 33
35 1 43 -2 48 -21z m4692 -660 c-3 -183 -9 -405 -12 -494 l-6 -160 -386 -28
c-213 -15 -398 -29 -411 -32 -19 -4 -8 12 51 75 222 236 398 558 469 859 12
48 23 89 25 92 5 5 138 16 223 18 l53 2 -6 -332z m484 208 c237 -68 433 -126
435 -127 3 -4 -15 -972 -19 -976 -1 -1 -198 55 -439 125 l-438 126 5 131 c3
71 9 291 12 488 4 196 8 357 9 357 2 0 197 -56 435 -124z m1361 -660 c-5 -230
-12 -420 -14 -422 -4 -4 -308 -17 -686 -30 l-203 -7 6 319 c3 176 9 398 12
495 l6 176 442 14 441 14 3 -70 c2 -38 -1 -258 -7 -489z m483 459 c225 -52
411 -97 414 -100 6 -6 -14 -964 -20 -971 -3 -2 -169 33 -369 80 -200 46 -390
90 -423 97 l-58 13 6 110 c3 61 9 281 12 489 5 269 10 377 18 377 6 0 195 -43
420 -95z m1253 -352 c-4 -190 -7 -407 -7 -482 0 -75 -4 -142 -8 -149 -6 -8
-135 -27 -381 -57 -204 -25 -382 -45 -395 -45 l-23 0 5 213 c2 116 7 338 10
492 l7 280 385 46 c212 26 391 47 399 48 12 1 13 -50 8 -346z m358 242 c138
-42 294 -90 348 -107 l99 -30 -6 -232 c-3 -127 -9 -347 -12 -489 -6 -257 -6
-258 -28 -251 -11 4 -178 56 -371 115 l-350 107 3 458 c1 253 5 473 7 491 5
30 8 31 33 23 15 -5 140 -44 277 -85z m-10209 -427 c-4 -238 -9 -449 -12 -469
l-5 -37 -457 -6 c-251 -4 -472 -9 -489 -12 l-33 -5 0 471 0 470 173 1 c160 2
688 13 786 17 l43 2 -6 -432z m839 224 c143 -37 260 -72 260 -77 0 -6 -4 -212
-9 -460 -4 -247 -9 -451 -11 -453 -1 -1 -209 51 -461 116 -253 66 -484 125
-514 132 -30 7 -59 14 -65 15 -9 2 0 891 10 921 2 7 97 -13 267 -58 144 -37
380 -98 523 -136z m1049 -108 c58 -104 171 -257 254 -345 l60 -65 -5 -202 c-7
-234 11 -207 -148 -217 -55 -3 -282 -19 -504 -35 -223 -17 -409 -30 -414 -30
-7 0 -3 490 7 908 1 12 1 22 1 23 0 2 598 47 645 48 l55 1 49 -86z m4846 -399
c238 -68 434 -126 435 -127 4 -5 -17 -913 -21 -917 -2 -2 -189 49 -416 114
-227 65 -422 119 -433 120 -19 2 -20 8 -18 151 6 350 15 784 17 784 2 0 198
-56 436 -125z m-484 -187 c-4 -167 -9 -376 -12 -464 l-6 -162 -62 -6 c-178
-17 -888 -67 -892 -63 -3 3 -1 194 3 426 l8 421 45 44 45 45 375 29 c206 16
404 30 438 31 l64 1 -6 -302z m-3749 -67 c102 -68 301 -171 339 -175 13 -2 32
-10 41 -18 18 -15 206 -98 223 -98 6 0 10 -28 10 -61 0 -58 -1 -61 -22 -57
-13 3 -147 42 -298 88 -151 45 -339 101 -417 124 l-143 41 0 110 c0 61 3 140
6 177 l7 67 81 -68 c44 -38 122 -96 173 -130z m2739 -223 c-4 -216 -8 -394
-10 -395 -1 -1 -33 6 -72 17 -633 176 -835 233 -863 242 l-35 11 110 38 c167
59 314 123 314 137 0 7 13 12 29 12 36 0 237 100 341 169 41 27 100 75 130
105 30 31 56 56 59 56 2 0 1 -177 -3 -392z m2860 45 c-3 -181 -9 -391 -12
-469 l-6 -140 -382 -13 c-487 -15 -495 -15 -502 -8 -6 6 11 916 17 921 3 3
420 20 848 35 l43 1 -6 -327z m444 237 c190 -45 369 -86 398 -92 l54 -11 -6
-361 c-4 -199 -9 -408 -12 -464 -6 -100 -7 -104 -28 -98 -11 3 -202 47 -424
98 l-404 93 6 105 c3 58 9 266 12 464 l6 358 27 -6 c14 -3 181 -42 371 -86z
m1285 -482 c-4 -255 -10 -466 -14 -469 -8 -8 -772 -98 -786 -93 -11 5 -10 200
3 689 l7 240 380 46 c209 26 388 47 398 48 18 1 19 -16 12 -461z m470 332
c181 -56 331 -102 332 -104 3 -3 -17 -920 -20 -921 -1 -1 -144 42 -317 96
-173 53 -341 105 -374 114 l-59 17 8 456 c4 252 9 460 11 464 2 4 23 0 47 -7
23 -8 190 -60 372 -115z m-10315 -28 c0 -60 -3 -251 -7 -424 l-6 -316 -316 -6
c-174 -3 -394 -8 -490 -11 l-174 -5 5 420 c3 231 8 424 12 428 8 7 354 16 764
20 l212 2 0 -108z m293 53 c117 -30 335 -87 485 -126 150 -38 284 -74 296 -79
22 -8 23 -13 20 -82 -2 -40 -7 -230 -10 -421 -6 -315 -8 -347 -23 -342 -9 2
-164 43 -346 90 -181 47 -398 104 -482 125 -84 22 -164 40 -179 40 l-27 0 6
293 c4 160 7 352 7 425 0 126 1 132 20 132 12 0 116 -25 233 -55z m2054 -159
c66 -21 612 -183 737 -219 l39 -11 -8 -420 c-4 -232 -8 -422 -9 -423 -2 -2
-191 53 -421 122 -230 69 -426 125 -437 125 -17 0 -18 12 -13 263 8 405 16
587 26 587 4 0 43 -11 86 -24z m-141 -148 c-3 -90 -8 -280 -11 -423 -4 -143
-7 -260 -8 -261 -7 -6 -1058 -76 -1063 -71 -7 7 9 833 16 841 7 6 897 73 998
75 l73 1 -5 -162z m1049 42 c138 -31 254 -45 423 -50 6 0 12 -4 12 -8 0 -9
-474 -47 -503 -41 -10 2 -18 7 -18 12 1 4 1 30 1 58 0 43 2 50 18 45 9 -3 40
-10 67 -16z m960 -482 c-4 -233 -9 -426 -12 -430 -2 -5 -23 -8 -46 -8 -23 0
-249 -18 -502 -39 -307 -26 -468 -36 -484 -29 l-24 9 6 286 c4 157 7 346 7
418 l0 132 68 2 c37 2 265 20 507 40 242 21 451 39 463 40 l24 1 -7 -422z
m342 341 c158 -44 378 -105 489 -136 l201 -55 -4 -262 c-3 -143 -8 -334 -12
-422 l-6 -161 -220 61 c-121 34 -340 96 -487 137 l-268 74 0 106 c0 148 13
739 16 739 1 0 132 -36 291 -81z m1688 -471 c-3 -189 -8 -380 -11 -425 -5 -79
-7 -82 -32 -87 -48 -9 -921 -70 -927 -65 -5 6 11 838 17 844 1 1 190 17 418
34 228 17 431 32 450 34 19 2 48 5 63 5 l28 2 -6 -342z m500 225 c225 -64 413
-119 416 -122 7 -6 -9 -832 -15 -839 -2 -2 -184 49 -405 112 -220 64 -415 116
-433 116 l-33 0 2 108 c2 59 6 250 9 425 6 315 6 317 28 317 11 0 205 -52 431
-117z m1654 -158 c130 -31 316 -74 414 -97 l178 -42 -6 -411 c-4 -225 -8 -415
-10 -422 -4 -13 -1 -13 -475 98 -168 39 -320 72 -339 72 l-33 2 1 130 c2 243
13 700 16 713 3 6 7 12 11 12 4 0 113 -25 243 -55z m-304 -327 c-3 -205 -8
-396 -11 -424 l-5 -52 -187 -7 c-103 -3 -290 -10 -417 -15 -126 -5 -242 -6
-258 -3 l-27 5 5 302 c3 165 8 355 11 421 l6 121 146 3 c81 2 224 6 317 10 94
4 228 8 298 9 l129 2 -7 -372z m2175 153 l355 -109 -3 -268 c-1 -148 -5 -338
-8 -422 -5 -135 -8 -152 -23 -148 -55 16 -727 220 -730 222 -1 2 0 192 4 424
l8 421 21 -5 c11 -4 181 -55 376 -115z m-445 -313 c-4 -233 -8 -424 -9 -425
-6 -7 -763 -92 -778 -87 -16 5 -18 20 -18 158 0 324 13 694 24 690 6 -2 171
16 366 40 195 24 370 44 389 45 l33 1 -7 -422z"/>
</g>
</svg>
